<svg preserveAspectRatio="none" overflow="visible" style="display: block;" width="18" height="18" viewBox="0 0 18 18" fill="none" xmlns="http://www.w3.org/2000/svg">
<g id="icon">
<g id="Bounding box">
</g>
<path id="shape" fill-rule="evenodd" clip-rule="evenodd" d="M10.125 1.5675H7.875L7.76306 1.57161C6.98697 1.62887 6.37508 2.27663 6.375 3.06734L6.37452 6.19275L5.81782 6.19302C4.48156 6.19319 3.81248 7.8088 4.75736 8.75368L7.93934 11.9357C8.52513 12.5214 9.47487 12.5214 10.0607 11.9357L13.2426 8.75368L13.3218 8.66863C14.1476 7.71516 13.4791 6.19319 12.1822 6.19302L11.6238 6.19275L11.625 3.06766C11.6251 2.23917 10.9535 1.5675 10.125 1.5675ZM10.125 3.0675L10.1245 7.69275L12.182 7.69302L9 10.875L5.81802 7.69302L7.87452 7.69275L7.875 3.0675H10.125ZM3 12.75V11.25H1.5V12.75C1.5 13.9761 2.42155 15 3.6 15H14.4C15.5784 15 16.5 13.9761 16.5 12.75V11.25H15V12.75C15 13.1808 14.7127 13.5 14.4 13.5H3.6C3.28728 13.5 3 13.1808 3 12.75Z" fill="#F0EFFF"/>
</g>
</svg>
